HIERARCHY
ROOT Hips
{
	OFFSET 0.000000 0.000000 0.000000 
	CHANNELS 6 Xposition Yposition Zposition Zrotation Yrotation Xrotation
	JOINT LeftUpLeg
	{
		OFFSET 1.363060 -1.794630 0.839290 
		CHANNELS 3 Zrotation Yrotation Xrotation
		JOINT LeftLeg
		{
			OFFSET 2.448110 -6.726130 0.000000 
			CHANNELS 3 Zrotation Yrotation Xrotation
			JOINT LeftFoot
			{
				OFFSET 2.562200 -7.039590 0.000000 
				CHANNELS 3 Zrotation Yrotation Xrotation
				JOINT LeftToeBase
				{
					OFFSET 0.157640 -0.433110 2.322550 
					CHANNELS 3 Zrotation Yrotation Xrotation
					End Site
					{
						OFFSET 0.000000 0.000000 0.000000 
					}
				}
			}
		}
	}
	JOINT RightUpLeg
	{
		OFFSET -1.305520 -1.794630 0.839290 
		CHANNELS 3 Zrotation Yrotation Xrotation
		JOINT RightLeg
		{
			OFFSET -2.542530 -6.985550 0.000000 
			CHANNELS 3 Zrotation Yrotation Xrotation
			JOINT RightFoot
			{
				OFFSET -2.568260 -7.056230 0.000000 
				CHANNELS 3 Zrotation Yrotation Xrotation
				JOINT RightToeBase
				{
					OFFSET -0.164730 -0.452590 2.363150 
					CHANNELS 3 Zrotation Yrotation Xrotation
					End Site
					{
						OFFSET 0.000000 0.000000 0.000000 
					}
				}
			}
		}
	}
	JOINT Spine
	{
		OFFSET 0.028270 2.035590 -0.193380 
		CHANNELS 3 Zrotation Yrotation Xrotation
		JOINT Spine1
		{
			OFFSET 0.056720 2.048850 -0.042750 
			CHANNELS 3 Zrotation Yrotation Xrotation
			JOINT Neck1
			{
				OFFSET -0.054170 1.746240 0.172020 
				CHANNELS 3 Zrotation Yrotation Xrotation
				JOINT Head
				{
					OFFSET 0.104070 1.761360 -0.123970 
					CHANNELS 3 Zrotation Yrotation Xrotation
					End Site
					{
						OFFSET 0.000000 0.000000 0.000000 
					}
				}
			}
			JOINT LeftArm
			{
				OFFSET 3.362410 1.200890 -0.311210 
				CHANNELS 3 Zrotation Yrotation Xrotation
				JOINT LeftForeArm
				{
					OFFSET 4.983000 -0.000000 -0.000000 
					CHANNELS 3 Zrotation Yrotation Xrotation
					JOINT LeftHand
					{
						OFFSET 3.483560 -0.000000 -0.000000 
						CHANNELS 3 Zrotation Yrotation Xrotation
						JOINT LeftHandIndex1
						{
							OFFSET 0.715260 -0.000000 -0.000000 
							CHANNELS 3 Zrotation Yrotation Xrotation
							End Site
							{
								OFFSET 0.000000 0.000000 0.000000 
							}
						}
					}
				}
			}
			JOINT RightArm
			{
				OFFSET -3.136600 1.374050 -0.404650 
				CHANNELS 3 Zrotation Yrotation Xrotation
				JOINT RightForeArm
				{
					OFFSET -5.241900 -0.000000 -0.000000 
					CHANNELS 3 Zrotation Yrotation Xrotation
					JOINT RightHand
					{
						OFFSET -3.444170 -0.000000 -0.000000 
						CHANNELS 3 Zrotation Yrotation Xrotation
						JOINT RightHandIndex1
						{
							OFFSET -0.622530 -0.000000 -0.000000 
							CHANNELS 3 Zrotation Yrotation Xrotation
							End Site
							{
								OFFSET 0.000000 0.000000 0.000000 
							}
						}
					}
				}
			}
		}
	}
}
MOTION
Frames: 10
Frame Time: 0.041667
-0.248044 18.197696 13.946055 -3.900416 -0.389785 -1.013015 -14.015500 -4.091897 -19.126931 11.014101 16.380937 64.006634 1.079621 -4.826809 20.197252 0.124100 -2.270600 -6.254000 24.828526 12.770898 -12.666157 -0.727356 -6.189210 23.647514 0.967012 -4.417121 8.399239 -0.217600 -3.002800 8.286600 5.443633 -0.864442 3.073843 1.567990 -0.601958 -8.950763 4.342875 -5.298509 19.884654 0.125500 -2.045100 9.853600 -81.859091 0.407663 23.141554 13.436834 -22.587328 -2.783199 -0.496783 -0.912716 -2.826819 -7.125000 0.000000 0.000000 74.953107 1.057106 -1.698357 -6.638080 15.710617 -1.099320 0.943655 -0.646886 12.442784 7.125000 0.000000 0.000000 
-0.243945 18.194197 14.109418 -3.643444 -0.673841 -1.127877 -14.373989 -4.006216 -19.983465 11.076059 16.458150 64.192038 0.944307 -4.470237 18.170654 0.141700 -2.426300 -6.685500 24.633486 12.684220 -12.030745 -0.729053 -6.179909 23.691696 0.904885 -4.168636 7.822421 -0.180500 -2.736400 7.545800 5.300630 -0.696089 3.252048 1.524767 -0.503302 -8.848059 4.360844 -5.333351 19.953313 0.134900 -2.060600 9.891700 -81.966288 0.679189 23.094732 13.499847 -22.668779 -2.813393 -0.496697 -0.873113 -2.929389 -7.125000 0.000000 0.000000 74.911688 1.238361 0.376063 -6.981755 16.330050 -1.210601 0.959492 -0.587485 10.666126 7.125000 0.000000 0.000000 
-0.242045 18.188998 14.258485 -3.864666 -1.069592 -1.124187 -14.130241 -3.993549 -21.125938 11.078663 16.570317 64.174486 0.856351 -4.112679 16.811700 0.114100 -2.177600 -5.996800 25.028112 12.877825 -11.458421 -0.764488 -6.177054 23.808560 0.924705 -4.161333 7.272054 -0.143700 -2.443100 6.732000 5.327400 -0.401660 3.301081 1.335904 -0.362655 -8.916325 4.274529 -5.443644 20.128254 0.085800 -2.111200 9.980500 -82.022495 0.945544 23.198346 13.516732 -22.692698 -2.825078 -0.499499 -0.844233 -3.124357 -7.125000 0.000000 0.000000 74.820601 1.489156 1.921039 -7.297697 16.884362 -1.323487 0.973697 -0.495796 9.555123 7.125000 0.000000 0.000000 
-0.239846 18.198896 14.418848 -3.998317 -1.363655 -1.057165 -13.954446 -4.087552 -22.172608 11.004607 16.641468 63.927915 0.779023 -3.790160 15.518322 0.058200 -1.557200 -4.283300 25.276632 12.943403 -10.967823 -0.803341 -6.193281 23.953219 0.953633 -4.202114 6.785274 -0.148500 -2.483200 6.843100 5.237930 -0.186077 3.233986 1.079081 -0.263717 -8.945327 4.371565 -5.466208 19.784236 0.101200 -2.118300 9.780600 -81.924771 1.324863 23.100984 13.424013 -22.564659 -2.787376 -0.495693 -0.847066 -3.381754 -7.125000 0.000000 0.000000 74.799107 1.839014 2.531936 -7.389368 17.028886 -1.346078 0.986061 -0.492674 9.791233 7.125000 0.000000 0.000000 
-0.231248 18.201995 14.579612 -3.886519 -1.445959 -0.976232 -14.105641 -4.386349 -23.056375 10.866148 16.652767 63.503850 0.700941 -3.528551 13.870314 0.064700 -1.641200 -4.515100 25.170047 12.608644 -10.655373 -0.820821 -6.210452 24.059690 0.905003 -4.032227 6.439072 -0.169200 -2.650200 7.306400 5.080608 -0.148784 3.390696 0.932354 -0.236837 -8.713752 4.408841 -5.381563 19.787087 0.102900 -2.064300 9.821800 -81.913968 1.350778 22.920481 13.314844 -22.393529 -2.743572 -0.480279 -0.832516 -3.817048 -7.125000 0.000000 0.000000 74.694940 2.613800 3.225899 -7.413425 17.043832 -1.321195 1.017536 -0.566795 10.118847 7.125000 0.000000 0.000000 
-0.220150 18.188998 14.720780 -3.890705 -1.662791 -0.787730 -14.129036 -4.593425 -24.153913 10.670461 16.663444 62.908666 0.650173 -3.319718 12.463306 0.088700 -1.921100 -5.287800 25.192164 12.546093 -10.470760 -0.841808 -6.227971 24.193052 0.799950 -3.680300 6.042959 -0.170900 -2.663300 7.342800 5.011680 0.030730 3.475951 0.763976 -0.147768 -8.639844 4.331357 -5.398257 19.931961 0.063000 -2.068800 9.941400 -81.968818 1.376557 22.921571 13.220801 -22.246902 -2.708285 -0.473637 -0.809924 -4.316256 -7.125000 0.000000 0.000000 74.550412 3.119635 4.553483 -7.719554 17.566240 -1.423842 1.018479 -0.544755 9.184661 7.125000 0.000000 0.000000 
-0.208853 18.187499 14.873946 -4.022720 -1.984392 -0.650624 -13.998035 -4.779427 -25.158955 10.398730 16.641177 62.063597 0.601789 -3.009720 11.637197 0.074800 -1.764100 -4.854100 25.352209 12.478317 -10.208504 -0.873200 -6.256220 24.384638 0.643219 -3.164986 5.475912 -0.168700 -2.645900 7.294300 4.967766 0.308636 3.279522 0.502430 -0.027011 -8.864916 4.276460 -5.437566 19.856336 0.044000 -2.099600 9.856000 -81.991030 2.000203 23.000647 13.093271 -22.060838 -2.660528 -0.469792 -0.791911 -5.039491 -7.125000 0.000000 0.000000 74.386328 3.082602 6.150170 -8.095375 18.219940 -1.565198 1.019543 -0.468242 7.694451 7.125000 0.000000 0.000000 
-0.203154 18.189698 15.033510 -4.041682 -2.311043 -0.594354 -13.913671 -5.028483 -26.116538 10.036437 16.566939 60.931152 0.541919 -2.579454 11.370688 0.049300 -1.432800 -3.940400 25.406933 12.459254 -9.788886 -0.903615 -6.279670 24.541233 0.558920 -2.884702 4.991573 -0.147400 -2.474500 6.819000 4.947094 0.481648 3.173869 0.409470 0.058578 -9.001018 4.530136 -5.434180 19.734787 0.166700 -2.094800 9.750900 -82.021302 2.716113 23.059746 13.132872 -22.115440 -2.678853 -0.453410 -0.779753 -6.015912 -7.125000 0.000000 0.000000 74.192308 3.225033 7.706221 -8.373076 18.693107 -1.659046 1.030392 -0.443125 6.805796 7.125000 0.000000 0.000000 
-0.198555 18.168903 15.182276 -4.416796 -2.647324 -0.468642 -13.429605 -5.155904 -26.968547 9.689891 16.508038 59.832861 0.486095 -2.195005 10.429600 0.100000 -2.039500 -5.614900 25.906006 12.510208 -9.337507 -0.943514 -6.285700 24.688426 0.510256 -2.703028 4.505248 -0.117300 -2.208500 6.082300 5.001956 0.684093 3.228150 0.166892 0.150862 -8.941115 4.558432 -5.481832 19.589168 0.161400 -2.116000 9.685100 -81.996139 2.938892 22.813388 13.208306 -22.231685 -2.707098 -0.438450 -0.798567 -6.096261 -7.125000 0.000000 0.000000 74.072234 3.639846 8.965773 -8.686361 19.203666 -1.764254 1.037016 -0.440104 6.112441 7.125000 0.000000 0.000000 
-0.191457 18.153506 15.337941 -4.703992 -2.907353 -0.415728 -13.021746 -5.391378 -27.623057 9.275953 16.385028 58.520669 0.422039 -1.766901 9.527588 0.126700 -2.294700 -6.320800 26.253194 12.317584 -8.877618 -0.965702 -6.276476 24.769655 0.430902 -2.439879 4.090100 -0.122300 -2.254200 6.208600 5.106580 0.828220 3.404552 0.049954 0.228088 -8.796491 4.381072 -5.416954 19.499951 0.078600 -2.093600 9.700800 -82.160733 2.892459 22.422642 13.168054 -22.172111 -2.685295 -0.428468 -0.829783 -5.933068 -7.125000 0.000000 0.000000 73.871223 4.243007 10.121549 -8.981326 19.677020 -1.869688 1.039741 -0.423615 5.363774 7.125000 0.000000 0.000000 
